<?xml version="1.0" encoding="UTF-8"?>
<svg width="1920" height="156.82" version="1.1" viewBox="0 0 27213 2228.3" xmlns="http://www.w3.org/2000/svg"><g transform="translate(-11.989 -.0011652)"><g transform="matrix(1.5339 0 0 1.5339 -7298 -25869)" fill="#fff" stroke-width="14.209" aria-label="JUKLEAR"><path d="m4743.3 18021q63.429 4.092 124.81 6.138 53.199 2.046 108.44 4.092 55.245 0 94.121 0 47.06 0 73.66-26.599 28.646-28.646 28.646-75.706v-777.52h-265.99v-286.46h634.29v1064q0 200.52-94.121 294.64-94.121 94.121-294.64 94.121-69.568 0-143.23-4.092-71.614-2.047-130.95-6.139-69.568-4.092-135.04-10.23z"/><path d="m8128.5 16865h368.3v1043.5q0 214.84-98.213 313.06-96.167 96.167-311.01 96.167h-470.61q-214.84 0-313.05-96.167-96.167-98.214-96.167-313.06v-1043.5h368.3v1043.5q0 122.77 122.77 122.77h306.92q122.77 0 122.77-122.77z"/><path d="m10531 18298h-368.3v-1432.3h368.3v562.68h184.15l319.19-562.68h388.76l-401.04 705.91 398.99 726.37h-388.76l-317.15-583.14h-184.15z"/><path d="m13336 18011h746.83v286.46h-1115.1v-1432.3h368.3z"/><path d="m16782 18298h-1135.6v-1432.3h1135.6v286.46h-767.29v276.22h603.6v286.46h-603.6v296.69h767.29z"/><path d="m18622 18298h-398.99l542.22-1432.3h409.22l542.22 1432.3h-398.99l-92.075-255.76h-511.53zm184.15-521.76h327.38l-163.69-480.84z"/><path d="m21240 16865h859.37q214.84 0 311.01 98.213 98.213 96.167 98.213 311.01v184.15q0 169.83-57.291 263.95-55.245 94.121-178.01 124.81l255.76 450.14h-398.99l-235.3-429.68h-286.46v429.68h-368.3zm900.29 409.22q0-122.77-122.77-122.77h-409.22v429.68h409.22q122.77 0 122.77-122.77z"/></g></g></svg>
