<?xml version="1.0" encoding="UTF-8"?>
<svg width="1920" height="1289.2" version="1.1" viewBox="0 0 27213 18318" xmlns="http://www.w3.org/2000/svg"><g transform="translate(-3.0942e-6 1.2924e-5)"><g transform="matrix(7.8457 0 0 7.8457 283.88 -120)"><g transform="matrix(1.2111 0 0 1.2111 4251.5 -681.71)" stroke-width="14.209" aria-label="J"><path d="m-2944.8 1693.9v257.81c59.337 47.061 171.87 81.844 315.1 81.844 308.96 0 507.44-157.55 507.44-472.65v-955.53h-689.54l-65.476 249.63h480.84v691.59c0 163.69-94.121 237.35-253.72 237.35-102.31 0-204.61-34.784-294.64-90.029z" stroke-width="14.209"/></g><g transform="matrix(1.2027 .14233 -.14233 1.2027 4203.9 -322.42)"><path transform="matrix(1.4851 -.17575 .17575 1.4851 -3447.7 688.82)" d="m34.367 301.45-32.252 272.52 688.83 81.521 32.252-272.52-688.83-81.521zm90.619 88.268 46.367 5.4863c23.099 2.7337 34.169 18.339 32.26 34.475-1.407 11.889-8.8366 20.828-20.889 23.707 13.255 5.8743 18.781 17.379 17.273 30.117-2.2513 19.023-18.015 31.451-43.152 28.477l-45.689-5.4082 13.83-116.85zm20.367 22.904-3.3164 28.025 22.418 2.6523c9.0019 1.0653 14.503-4.6559 15.447-12.639 0.88443-7.4732-2.9589-14.299-11.621-15.324l-22.928-2.7148zm188.71 14.928 6.625 0.78516-2.1914 18.514 23.27 2.752-2.0918 17.664-23.268-2.7539-4.3027 36.348c-1.1055 9.3416 3.0394 13.62 12.551 14.746 2.8874 0.34171 6.8947-0.04418 10.133-1.2109l-2.0918 17.664c-3.7186 2.3155-10.843 2.85-16.787 2.1465-19.702-2.3317-28.308-14.027-26.277-31.182l4.8652-41.104-11.551-1.3672 0.56445-4.7558 30.553-28.246zm-114.29 5.248 21.91 2.5918-6.0293 50.955c-1.1658 9.8511 2.8052 17.037 12.826 18.223 10.361 1.2261 17.219-4.3341 18.807-17.752l5.6484-47.727 21.91 2.5938-10.111 85.432-20.891-2.4726 1.498-14.117c-4.9517 8.3697-14.248 14.158-26.986 12.65-18.174-2.1508-27.425-15.645-25.234-34.158l6.6523-56.219zm175.94 2.0488 6.625 0.78515-2.1914 18.512 23.27 2.7539-2.0918 17.664-23.268-2.7539-4.3027 36.348c-1.1056 9.3416 3.0394 13.62 12.551 14.746 2.8873 0.34171 6.8927-0.04418 10.131-1.2109l-2.0898 17.664c-3.7186 2.3155-10.842 2.85-16.787 2.1465-19.702-2.3317-28.308-14.029-26.277-31.184l4.8652-41.102-11.551-1.3672 0.5625-4.7559 30.555-28.246zm-255.94 24.824-3.5371 29.893 22.08 2.6133c11.38 1.3468 16.879-4.375 17.924-13.207 1.0251-8.6622-2.6671-15.3-13.877-16.627l-22.59-2.6719zm328.58 0.30859c2.5337-0.04243 5.1564 0.09175 7.8633 0.41211 28.874 3.4171 43.507 25.298 40.492 50.775-3.0352 25.647-22.372 43.509-51.246 40.092-28.874-3.4171-43.506-25.298-40.471-50.945 2.7324-23.088 18.869-39.924 43.361-40.334zm66.988 10.164 21.23 2.5137-1.4785 13.947c5.7316-9.1385 15.417-13.848 27.307-12.441 17.834 2.1106 27.087 15.606 24.896 34.119l-6.6543 56.219-21.91-2.5918 5.9902-50.615c1.186-10.021-2.7662-17.376-12.957-18.582-10.53-1.2462-17.448 4.8239-18.936 17.393l-5.6894 48.066-21.91-2.5938 10.111-85.434zm-64.234 9.0762c-13.936-0.23461-22.471 10.491-24.035 23.707-1.6684 14.097 5.0167 27.461 20.643 29.311s25.246-9.5863 26.914-23.684c1.6684-14.097-5.0362-27.289-20.662-29.139-0.97661-0.11558-1.9303-0.17968-2.8594-0.19532z" fill="#5c5cff" stroke-linecap="round" stroke-linejoin="round" stroke-width="794.41"/></g><path d="m817.28 346.1c-6.5323 160.46-128.37 186.65-139.66 292.77" fill="none" stroke="#000" stroke-width="34.416"/><g transform="matrix(.97316 0 0 .97316 71.885 31.275)"><path d="m2948.4 68.833s-617.04 692.58-617.04 655.32c0.014-646.03 0-655.32 0-655.32h-351.64v1681.1h351.64s0.014-56.948 0-754.29c-7e-4 -38.139 650.32 754.29 650.32 754.29h422.98l-761.1-871.77 709.03-809.33z" fill="none" stroke="#000" stroke-linecap="round" stroke-linejoin="round" stroke-width="68.833"/><g fill="#6767ff"><path d="m2065 68.833a85.255 85.255 0 0 1-85.255 85.255 85.255 85.255 0 0 1-85.255-85.255 85.255 85.255 0 0 1 85.255-85.255 85.255 85.255 0 0 1 85.255 85.255"/><path d="m2416.7 68.833a85.255 85.255 0 0 1-85.255 85.255 85.255 85.255 0 0 1-85.255-85.255 85.255 85.255 0 0 1 85.255-85.255 85.255 85.255 0 0 1 85.255 85.255"/><path d="m2065 1749.9a85.255 85.255 0 0 1-85.255 85.255 85.255 85.255 0 0 1-85.255-85.255 85.255 85.255 0 0 1 85.255-85.255 85.255 85.255 0 0 1 85.255 85.255"/><path d="m2416.7 1749.9a85.255 85.255 0 0 1-85.255 85.255 85.255 85.255 0 0 1-85.255-85.255 85.255 85.255 0 0 1 85.255-85.255 85.255 85.255 0 0 1 85.255 85.255"/><path d="m2430.9 1024.1a85.255 85.255 0 0 1-85.255 85.255 85.255 85.255 0 0 1-85.255-85.255 85.255 85.255 0 0 1 85.255-85.255 85.255 85.255 0 0 1 85.255 85.255"/><path d="m2430.9 695.73a85.255 85.255 0 0 1-85.255 85.255 85.255 85.255 0 0 1-85.255-85.255 85.255 85.255 0 0 1 85.255-85.255 85.255 85.255 0 0 1 85.255 85.255"/><path d="m3033.7 68.833a85.255 85.255 0 0 1-85.255 85.255 85.255 85.255 0 0 1-85.255-85.255 85.255 85.255 0 0 1 85.255-85.255 85.255 85.255 0 0 1 85.255 85.255"/><path d="m3409.5 68.833a85.255 85.255 0 0 1-85.255 85.255 85.255 85.255 0 0 1-85.255-85.255 85.255 85.255 0 0 1 85.255-85.255 85.255 85.255 0 0 1 85.255 85.255"/><path d="m2757.3 878.16a85.255 85.255 0 0 1-85.255 85.255 85.255 85.255 0 0 1-85.255-85.255 85.255 85.255 0 0 1 85.255-85.255 85.255 85.255 0 0 1 85.255 85.255"/><path d="m3461.5 1749.9a85.255 85.255 0 0 1-85.255 85.255 85.255 85.255 0 0 1-85.255-85.255 85.255 85.255 0 0 1 85.255-85.255 85.255 85.255 0 0 1 85.255 85.255"/><path d="m3067 1749.9a85.255 85.255 0 0 1-85.255 85.255 85.255 85.255 0 0 1-85.255-85.255 85.255 85.255 0 0 1 85.255-85.255 85.255 85.255 0 0 1 85.255 85.255"/></g></g></g><g stroke-width="14.209" aria-label="JUKLEAR"><path d="m4743.3 18021q63.429 4.092 124.81 6.138 53.199 2.046 108.44 4.092 55.245 0 94.121 0 47.06 0 73.66-26.599 28.646-28.646 28.646-75.706v-777.52h-265.99v-286.46h634.29v1064q0 200.52-94.121 294.64-94.121 94.121-294.64 94.121-69.568 0-143.23-4.092-71.614-2.047-130.95-6.139-69.568-4.092-135.04-10.23z"/><path d="m8128.5 16865h368.3v1043.5q0 214.84-98.213 313.06-96.167 96.167-311.01 96.167h-470.61q-214.84 0-313.05-96.167-96.167-98.214-96.167-313.06v-1043.5h368.3v1043.5q0 122.77 122.77 122.77h306.92q122.77 0 122.77-122.77z"/><path d="m10531 18298h-368.3v-1432.3h368.3v562.68h184.15l319.19-562.68h388.76l-401.04 705.91 398.99 726.37h-388.76l-317.15-583.14h-184.15z"/><path d="m13336 18011h746.83v286.46h-1115.1v-1432.3h368.3z"/><path d="m16782 18298h-1135.6v-1432.3h1135.6v286.46h-767.29v276.22h603.6v286.46h-603.6v296.69h767.29z"/><path d="m18622 18298h-398.99l542.22-1432.3h409.22l542.22 1432.3h-398.99l-92.075-255.76h-511.53zm184.15-521.76h327.38l-163.69-480.84z"/><path d="m21240 16865h859.37q214.84 0 311.01 98.213 98.213 96.167 98.213 311.01v184.15q0 169.83-57.291 263.95-55.245 94.121-178.01 124.81l255.76 450.14h-398.99l-235.3-429.68h-286.46v429.68h-368.3zm900.29 409.22q0-122.77-122.77-122.77h-409.22v429.68h409.22q122.77 0 122.77-122.77z"/></g></g></svg>
