<?xml version="1.0" encoding="UTF-8"?>
<svg width="1920" height="994.95" version="1.1" viewBox="0 0 27213 14137" xmlns="http://www.w3.org/2000/svg"><g transform="translate(-30.055 1.2924e-5)"><g transform="matrix(7.8457 0 0 7.8457 283.88 -120)"><g transform="matrix(1.2111 0 0 1.2111 4251.5 -681.71)" stroke-width="14.209" aria-label="J"><path d="m-2944.8 1693.9v257.81c59.337 47.061 171.87 81.844 315.1 81.844 308.96 0 507.44-157.55 507.44-472.65v-955.53h-689.54l-65.476 249.63h480.84v691.59c0 163.69-94.121 237.35-253.72 237.35-102.31 0-204.61-34.784-294.64-90.029z" fill="#fff" stroke-width="14.209"/></g><g transform="matrix(1.2027 .14233 -.14233 1.2027 4203.9 -322.42)"><path transform="matrix(1.4851 -.17575 .17575 1.4851 -3447.7 688.82)" d="m34.367 301.45-32.252 272.52 688.83 81.521 32.252-272.52zm90.619 88.268 46.367 5.4863c23.099 2.7337 34.169 18.339 32.26 34.475-1.407 11.889-8.8366 20.828-20.889 23.707 13.255 5.8743 18.781 17.379 17.273 30.117-2.2513 19.023-18.015 31.451-43.152 28.477l-45.689-5.4082zm20.367 22.904-3.3164 28.025 22.418 2.6523c9.0019 1.0653 14.503-4.6559 15.447-12.639 0.88443-7.4732-2.9589-14.299-11.621-15.324zm188.71 14.928 6.625 0.78516-2.1914 18.514 23.27 2.752-2.0918 17.664-23.268-2.7539-4.3027 36.348c-1.1055 9.3416 3.0394 13.62 12.551 14.746 2.8874 0.34171 6.8947-0.0442 10.133-1.2109l-2.0918 17.664c-3.7186 2.3155-10.843 2.85-16.787 2.1465-19.702-2.3317-28.308-14.027-26.277-31.182l4.8652-41.104-11.551-1.3672 0.56445-4.7558zm-114.29 5.248 21.91 2.5918-6.0293 50.955c-1.1658 9.8511 2.8052 17.037 12.826 18.223 10.361 1.2261 17.219-4.3341 18.807-17.752l5.6484-47.727 21.91 2.5938-10.111 85.432-20.891-2.4726 1.498-14.117c-4.9517 8.3697-14.248 14.158-26.986 12.65-18.174-2.1508-27.425-15.645-25.234-34.158zm175.94 2.0488 6.625 0.78515-2.1914 18.512 23.27 2.7539-2.0918 17.664-23.268-2.7539-4.3027 36.348c-1.1056 9.3416 3.0394 13.62 12.551 14.746 2.8873 0.34171 6.8927-0.0442 10.131-1.2109l-2.0898 17.664c-3.7186 2.3155-10.842 2.85-16.787 2.1465-19.702-2.3317-28.308-14.029-26.277-31.184l4.8652-41.102-11.551-1.3672 0.5625-4.7559zm-255.94 24.824-3.5371 29.893 22.08 2.6133c11.38 1.3468 16.879-4.375 17.924-13.207 1.0251-8.6622-2.6671-15.3-13.877-16.627zm328.58 0.30859c2.5337-0.0424 5.1564 0.0917 7.8633 0.41211 28.874 3.4171 43.507 25.298 40.492 50.775-3.0352 25.647-22.372 43.509-51.246 40.092-28.874-3.4171-43.506-25.298-40.471-50.945 2.7324-23.088 18.869-39.924 43.361-40.334zm66.988 10.164 21.23 2.5137-1.4785 13.947c5.7316-9.1385 15.417-13.848 27.307-12.441 17.834 2.1106 27.087 15.606 24.896 34.119l-6.6543 56.219-21.91-2.5918 5.9902-50.615c1.186-10.021-2.7662-17.376-12.957-18.582-10.53-1.2462-17.448 4.8239-18.936 17.393l-5.6894 48.066-21.91-2.5938zm-64.234 9.0762c-13.936-0.23461-22.471 10.491-24.035 23.707-1.6684 14.097 5.0167 27.461 20.643 29.311s25.246-9.5863 26.914-23.684c1.6684-14.097-5.0362-27.289-20.662-29.139-0.97661-0.11558-1.9303-0.17968-2.8594-0.19532z" fill="#5c5cff" stroke-linecap="round" stroke-linejoin="round" stroke-width="794.41"/></g><path d="m817.28 346.1c-6.5323 160.46-128.37 186.65-139.66 292.77" fill="none" stroke="#fff" stroke-width="34.416"/><g transform="matrix(.97316 0 0 .97316 71.885 31.275)"><path d="m2948.4 68.833s-617.04 692.58-617.04 655.32c0.014-646.03 0-655.32 0-655.32h-351.64v1681.1h351.64s0.014-56.948 0-754.29c-7e-4 -38.139 650.32 754.29 650.32 754.29h422.98l-761.1-871.77 709.03-809.33z" fill="none" stroke="#fff" stroke-linecap="round" stroke-linejoin="round" stroke-width="68.833"/><g fill="#6767ff"><path d="m2065 68.833a85.255 85.255 0 0 1-85.255 85.255 85.255 85.255 0 0 1-85.255-85.255 85.255 85.255 0 0 1 85.255-85.255 85.255 85.255 0 0 1 85.255 85.255"/><path d="m2416.7 68.833a85.255 85.255 0 0 1-85.255 85.255 85.255 85.255 0 0 1-85.255-85.255 85.255 85.255 0 0 1 85.255-85.255 85.255 85.255 0 0 1 85.255 85.255"/><path d="m2065 1749.9a85.255 85.255 0 0 1-85.255 85.255 85.255 85.255 0 0 1-85.255-85.255 85.255 85.255 0 0 1 85.255-85.255 85.255 85.255 0 0 1 85.255 85.255"/><path d="m2416.7 1749.9a85.255 85.255 0 0 1-85.255 85.255 85.255 85.255 0 0 1-85.255-85.255 85.255 85.255 0 0 1 85.255-85.255 85.255 85.255 0 0 1 85.255 85.255"/><path d="m2430.9 1024.1a85.255 85.255 0 0 1-85.255 85.255 85.255 85.255 0 0 1-85.255-85.255 85.255 85.255 0 0 1 85.255-85.255 85.255 85.255 0 0 1 85.255 85.255"/><path d="m2430.9 695.73a85.255 85.255 0 0 1-85.255 85.255 85.255 85.255 0 0 1-85.255-85.255 85.255 85.255 0 0 1 85.255-85.255 85.255 85.255 0 0 1 85.255 85.255"/><path d="m3033.7 68.833a85.255 85.255 0 0 1-85.255 85.255 85.255 85.255 0 0 1-85.255-85.255 85.255 85.255 0 0 1 85.255-85.255 85.255 85.255 0 0 1 85.255 85.255"/><path d="m3409.5 68.833a85.255 85.255 0 0 1-85.255 85.255 85.255 85.255 0 0 1-85.255-85.255 85.255 85.255 0 0 1 85.255-85.255 85.255 85.255 0 0 1 85.255 85.255"/><path d="m2757.3 878.16a85.255 85.255 0 0 1-85.255 85.255 85.255 85.255 0 0 1-85.255-85.255 85.255 85.255 0 0 1 85.255-85.255 85.255 85.255 0 0 1 85.255 85.255"/><path d="m3461.5 1749.9a85.255 85.255 0 0 1-85.255 85.255 85.255 85.255 0 0 1-85.255-85.255 85.255 85.255 0 0 1 85.255-85.255 85.255 85.255 0 0 1 85.255 85.255"/><path d="m3067 1749.9a85.255 85.255 0 0 1-85.255 85.255 85.255 85.255 0 0 1-85.255-85.255 85.255 85.255 0 0 1 85.255-85.255 85.255 85.255 0 0 1 85.255 85.255"/></g></g></g><path transform="matrix(14.209 0 0 14.209 -34.447 -1.2924e-5)" d="m124.99 389.72-13.83 116.85 45.689 5.4082c25.137 2.9749 40.901-9.4538 43.152-28.477 1.5076-12.738-4.0184-24.243-17.273-30.117 12.052-2.8793 19.482-11.818 20.889-23.707 1.9096-16.135-9.1607-31.741-32.26-34.475zm20.367 22.904 22.928 2.7148c8.6622 1.0251 12.506 7.851 11.621 15.324-0.94473 7.9828-6.4454 13.704-15.447 12.639l-22.418-2.6523zm188.71 14.928-30.553 28.246-0.56445 4.7558 11.551 1.3672-4.8652 41.104c-2.0302 17.155 6.5751 28.85 26.277 31.182 5.9446 0.70352 13.069 0.16902 16.787-2.1465l2.0918-17.664c-3.2381 1.1667-7.2454 1.5526-10.133 1.2109-9.5114-1.1256-13.656-5.4045-12.551-14.746l4.3027-36.348 23.268 2.7539 2.0918-17.664-23.27-2.752 2.1914-18.514zm-114.29 5.248-6.6523 56.219c-2.191 18.513 7.0608 32.007 25.234 34.158 12.738 1.5076 22.035-4.2807 26.986-12.65l-1.498 14.117 20.891 2.4726 10.111-85.432-21.91-2.5938-5.6484 47.727c-1.588 13.418-8.446 18.978-18.807 17.752-10.021-1.1859-13.992-8.3716-12.826-18.223l6.0293-50.955zm175.94 2.0488-30.555 28.246-0.5625 4.7559 11.551 1.3672-4.8652 41.102c-2.0302 17.155 6.5752 28.852 26.277 31.184 5.9446 0.70354 13.069 0.16903 16.787-2.1465l2.0898-17.664c-3.2382 1.1667-7.2435 1.5526-10.131 1.2109-9.5114-1.1256-13.656-5.4045-12.551-14.746l4.3027-36.348 23.268 2.7539 2.0918-17.664-23.27-2.7539 2.1914-18.512zm-255.94 24.824 22.59 2.6719c11.21 1.3266 14.902 7.9648 13.877 16.627-1.0452 8.832-6.5441 14.554-17.924 13.207l-22.08-2.6133zm328.58 0.30859c-24.492 0.41017-40.629 17.245-43.361 40.334-3.0352 25.647 11.597 47.528 40.471 50.945 28.874 3.4171 48.211-14.445 51.246-40.092 3.0151-25.477-11.618-47.358-40.492-50.775-2.7069-0.32041-5.3296-0.45451-7.8633-0.41211zm66.988 10.164-10.111 85.434 21.91 2.5938 5.6894-48.066c1.4875-12.569 8.4051-18.639 18.936-17.393 10.191 1.206 14.143 8.5611 12.957 18.582l-5.9902 50.615 21.91 2.5918 6.6543-56.219c2.191-18.513-7.0626-32.009-24.896-34.119-11.889-1.407-21.575 3.3029-27.307 12.441l1.4785-13.947zm-64.234 9.0762c0.92907 0.0156 1.8828 0.0797 2.8594 0.19532 15.626 1.8492 22.33 15.041 20.662 29.139-1.6684 14.097-11.288 25.533-26.914 23.684s-22.311-15.213-20.643-29.311c1.5641-13.216 10.099-23.942 24.035-23.707z" fill="#fff" stroke="#fff" stroke-linecap="round" stroke-linejoin="round" stroke-width="4"/></g></svg>
